<svg xmlns="http://www.w3.org/2000/svg" xmlns:xlink="http://www.w3.org/1999/xlink" version="1.0" x="0" y="0" width="2400" height="2061.6232628915823" viewBox="133.28 93.45707061767578 73.44 63.08567184448242" preserveAspectRatio="xMidYMid meet" color-interpolation-filters="sRGB"><g><defs><linearGradient id="92" x1="0%" y1="0%" x2="100%" y2="0%"><stop offset="0%" stop-color="#fa71cd"></stop> <stop offset="100%" stop-color="#9b59b6"></stop></linearGradient><linearGradient id="93" x1="0%" y1="0%" x2="100%" y2="0%"><stop offset="0%" stop-color="#f9d423"></stop> <stop offset="100%" stop-color="#f83600"></stop></linearGradient><linearGradient id="94" x1="0%" y1="0%" x2="100%" y2="0%"><stop offset="0%" stop-color="#0064d2"></stop> <stop offset="100%" stop-color="#1cb0f6"></stop></linearGradient><linearGradient id="95" x1="0%" y1="0%" x2="100%" y2="0%"><stop offset="0%" stop-color="#f00978"></stop> <stop offset="100%" stop-color="#3f51b1"></stop></linearGradient><linearGradient id="96" x1="0%" y1="0%" x2="100%" y2="0%"><stop offset="0%" stop-color="#7873f5"></stop> <stop offset="100%" stop-color="#ec77ab"></stop></linearGradient><linearGradient id="97" x1="0%" y1="0%" x2="100%" y2="0%"><stop offset="0%" stop-color="#f9d423"></stop> <stop offset="100%" stop-color="#e14fad"></stop></linearGradient><linearGradient id="98" x1="0%" y1="0%" x2="100%" y2="0%"><stop offset="0%" stop-color="#009efd"></stop> <stop offset="100%" stop-color="#2af598"></stop></linearGradient><linearGradient id="99" x1="0%" y1="0%" x2="100%" y2="0%"><stop offset="0%" stop-color="#ffcc00"></stop> <stop offset="100%" stop-color="#00b140"></stop></linearGradient><linearGradient id="100" x1="0%" y1="0%" x2="100%" y2="0%"><stop offset="0%" stop-color="#d51007"></stop> <stop offset="100%" stop-color="#ff8177"></stop></linearGradient><linearGradient id="102" x1="0%" y1="0%" x2="100%" y2="0%"><stop offset="0%" stop-color="#a2b6df"></stop> <stop offset="100%" stop-color="#0c3483"></stop></linearGradient><linearGradient id="103" x1="0%" y1="0%" x2="100%" y2="0%"><stop offset="0%" stop-color="#7ac5d8"></stop> <stop offset="100%" stop-color="#eea2a2"></stop></linearGradient><linearGradient id="104" x1="0%" y1="0%" x2="100%" y2="0%"><stop offset="0%" stop-color="#00ecbc"></stop> <stop offset="100%" stop-color="#007adf"></stop></linearGradient><linearGradient id="105" x1="0%" y1="0%" x2="100%" y2="0%"><stop offset="0%" stop-color="#b88746"></stop> <stop offset="100%" stop-color="#fdf5a6"></stop></linearGradient></defs><g class="imagesvg isNoFont" transform="translate(140,100.17707061767578)"><g mask="url(#67fb44b8-c6d7-4593-b676-4593a89c8646)"><rect fill="#C6D0F5" fill-opacity="0" stroke-width="2" x="0" y="0" width="60" height="49.64585953531475" class="image-rect"></rect> <svg x="0" y="0" width="60" height="49.64585953531475" filtersec="colorsf2192552420" class="image-svg-svg primary" style="overflow: visible;"><svg xmlns="http://www.w3.org/2000/svg" xmlns:xlink="http://www.w3.org/1999/xlink" version="1.1" x="0px" y="0px" viewBox="10 16.89750099182129 80.00999450683594 66.20249938964844" xml:space="preserve"><path d="M89.25,36.16L50.59,17.04c-0.37-0.19-0.81-0.19-1.19,0L10.75,36.16c-0.46,0.23-0.75,0.69-0.75,1.2  c0,0.51,0.29,0.97,0.75,1.2l13.16,6.5v16.6c0,0.44,0.21,0.85,0.57,1.1c8.47,5.92,17.01,8.88,25.54,8.88c5.35,0,10.69-1.17,16.01-3.5  c0.68-0.3,0.99-1.09,0.69-1.77c-0.3-0.68-1.09-0.99-1.77-0.69c-12.87,5.65-25.42,4.11-38.36-4.73V46.39l22.82,11.28  c0.19,0.09,0.39,0.14,0.59,0.14c0.2,0,0.41-0.05,0.59-0.14l14.62-7.24c0.66-0.33,0.94-1.13,0.61-1.79  c-0.33-0.66-1.13-0.94-1.79-0.61L50,54.97L25.81,43.02c-0.03-0.01-0.05-0.03-0.08-0.04l-11.37-5.62L50,19.73l35.64,17.63  l-13.64,6.73c-0.66,0.33-0.94,1.13-0.61,1.79c0.33,0.66,1.13,0.94,1.79,0.61l0.24-0.12v14.57L72.3,61.7  c-0.62,0.41-0.78,1.24-0.37,1.86c0.26,0.39,0.68,0.6,1.12,0.6c0.26,0,0.51-0.07,0.74-0.22l1.71-1.15c0.37-0.25,0.6-0.67,0.6-1.12  V45.06l13.16-6.49c0.46-0.22,0.75-0.69,0.75-1.2C90,36.86,89.71,36.39,89.25,36.16z"></path><path d="M65.13,74.53v4.36c0,2.32,1.89,4.21,4.21,4.21c2.32,0,4.21-1.89,4.21-4.21v-4.36c0-1.85-1.21-3.41-2.87-3.97V46.93  c0-0.07-0.03-0.12-0.04-0.19c-0.01-0.1-0.02-0.19-0.06-0.29c-0.03-0.08-0.08-0.15-0.13-0.22c-0.04-0.07-0.08-0.15-0.14-0.21  c-0.07-0.07-0.15-0.12-0.23-0.18c-0.05-0.04-0.09-0.09-0.15-0.12l-19.34-9.57c-0.66-0.33-1.47-0.06-1.79,0.61  c-0.33,0.66-0.06,1.47,0.61,1.79l18.6,9.2v22.8C66.34,71.12,65.13,72.68,65.13,74.53z M69.34,73c0.84,0,1.53,0.69,1.53,1.53v4.36  c0,0.85-0.69,1.53-1.53,1.53c-0.85,0-1.53-0.69-1.53-1.53v-4.36C67.81,73.69,68.5,73,69.34,73z"></path></svg><rect v-gra="id" width="72" height="61.64567184448242" transform="translate(-6, -6)" style="pointer-events:none;" fill="url(#VLr8uxh65SP1CCASTIHGm)"></rect></svg> <defs><filter id="colors4327606493"><feColorMatrix type="matrix" values="0 0 0 0 0.55859375  0 0 0 0 0.25390625  0 0 0 0 0.25390625  0 0 0 1 0" class="icon-feColorMatrix "></feColorMatrix></filter> <filter id="colorsf2192552420"><feColorMatrix type="matrix" values="0 0 0 0 0.99609375  0 0 0 0 0.99609375  0 0 0 0 0.99609375  0 0 0 1 0" class="icon-fecolormatrix"></feColorMatrix></filter> <filter id="colorsb6233848079"><feColorMatrix type="matrix" values="0 0 0 0 0  0 0 0 0 0  0 0 0 0 0  0 0 0 1 0" class="icon-fecolormatrix"></feColorMatrix></filter></defs></g></g><defs v-gra="od"></defs><defs v-gra="id"><filter id="b8de17c9-5fa8-4927-9731-2be6c8e8fa44" filterUnits="userSpaceOnUse"><feColorMatrix type="matrix" values="0 0 0 0 0.99609375  0 0 0 0 0.99609375  0 0 0 0 0.99609375  0 0 0 1 0"></feColorMatrix></filter><linearGradient x1="0" y1="1" x2="0" y2="0" id="VLr8uxh65SP1CCASTIHGm"><stop offset="0%" stop-color="#a6d189"></stop><stop offset="33.33%" stop-color="#8caaee"></stop><stop offset="66.67%" stop-color="#ca9ee6"></stop><stop offset="100%" stop-color="#fccc05"></stop></linearGradient><filter id="42443b3f1de60f6b6fd3b6a9844b4764" filterUnits="objectBoundingBox"><feColorMatrix type="matrix" values="0 0 0 0 0.99609375  0 0 0 0 0.99609375  0 0 0 0 0.99609375  0 0 0 1 0"></feColorMatrix></filter></defs><mask v-gra="im" id="67fb44b8-c6d7-4593-b676-4593a89c8646"><svg filter="url(#b8de17c9-5fa8-4927-9731-2be6c8e8fa44)" x="0" y="0" width="60" height="49.64585953531475" filtersec="colorsf2192552420" class="image-svg-svg primary" style="overflow: visible;"><svg xmlns="http://www.w3.org/2000/svg" xmlns:xlink="http://www.w3.org/1999/xlink" version="1.1" x="0px" y="0px" viewBox="10 16.89750099182129 80.00999450683594 66.20249938964844" xml:space="preserve"><path d="M89.25,36.16L50.59,17.04c-0.37-0.19-0.81-0.19-1.19,0L10.75,36.16c-0.46,0.23-0.75,0.69-0.75,1.2  c0,0.51,0.29,0.97,0.75,1.2l13.16,6.5v16.6c0,0.44,0.21,0.85,0.57,1.1c8.47,5.92,17.01,8.88,25.54,8.88c5.35,0,10.69-1.17,16.01-3.5  c0.68-0.3,0.99-1.09,0.69-1.77c-0.3-0.68-1.09-0.99-1.77-0.69c-12.87,5.65-25.42,4.11-38.36-4.73V46.39l22.82,11.28  c0.19,0.09,0.39,0.14,0.59,0.14c0.2,0,0.41-0.05,0.59-0.14l14.62-7.24c0.66-0.33,0.94-1.13,0.61-1.79  c-0.33-0.66-1.13-0.94-1.79-0.61L50,54.97L25.81,43.02c-0.03-0.01-0.05-0.03-0.08-0.04l-11.37-5.62L50,19.73l35.64,17.63  l-13.64,6.73c-0.66,0.33-0.94,1.13-0.61,1.79c0.33,0.66,1.13,0.94,1.79,0.61l0.24-0.12v14.57L72.3,61.7  c-0.62,0.41-0.78,1.24-0.37,1.86c0.26,0.39,0.68,0.6,1.12,0.6c0.26,0,0.51-0.07,0.74-0.22l1.71-1.15c0.37-0.25,0.6-0.67,0.6-1.12  V45.06l13.16-6.49c0.46-0.22,0.75-0.69,0.75-1.2C90,36.86,89.71,36.39,89.25,36.16z"></path><path d="M65.13,74.53v4.36c0,2.32,1.89,4.21,4.21,4.21c2.32,0,4.21-1.89,4.21-4.21v-4.36c0-1.85-1.21-3.41-2.87-3.97V46.93  c0-0.07-0.03-0.12-0.04-0.19c-0.01-0.1-0.02-0.19-0.06-0.29c-0.03-0.08-0.08-0.15-0.13-0.22c-0.04-0.07-0.08-0.15-0.14-0.21  c-0.07-0.07-0.15-0.12-0.23-0.18c-0.05-0.04-0.09-0.09-0.15-0.12l-19.34-9.57c-0.66-0.33-1.47-0.06-1.79,0.61  c-0.33,0.66-0.06,1.47,0.61,1.79l18.6,9.2v22.8C66.34,71.12,65.13,72.68,65.13,74.53z M69.34,73c0.84,0,1.53,0.69,1.53,1.53v4.36  c0,0.85-0.69,1.53-1.53,1.53c-0.85,0-1.53-0.69-1.53-1.53v-4.36C67.81,73.69,68.5,73,69.34,73z"></path></svg></svg></mask></g></svg>