
<svg
  version="1.0"
  xmlns="http://www.w3.org/2000/svg"
  xmlns:xlink="http://www.w3.org/1999/xlink"
  width="2400"
  height="1800"
>
  
  <rect
    x="0"
    y="0"
    width="100%"
    height="100%"
    fill="#000000"
    fill-opacity="1"
  ></rect>
  <svg
    version="1.0"
    xmlns="http://www.w3.org/2000/svg"
    xmlns:xlink="http://www.w3.org/1999/xlink"
    x="0"
    y="0"
    width="2400"
    height="1800"
    viewBox="0 0 340.000000 250.000000"
    preserveAspectRatio="xMidYMid meet"
    color-interpolation-filters="sRGB"
  >
    <defs><linearGradient id="92" x1="0%" y1="0%" x2="100%" y2="0%"><stop offset="0%" stop-color="#fa71cd"/> <stop offset="100%" stop-color="#9b59b6"/></linearGradient><linearGradient id="93" x1="0%" y1="0%" x2="100%" y2="0%"><stop offset="0%" stop-color="#f9d423"/> <stop offset="100%" stop-color="#f83600"/></linearGradient><linearGradient id="94" x1="0%" y1="0%" x2="100%" y2="0%"><stop offset="0%" stop-color="#0064d2"/> <stop offset="100%" stop-color="#1cb0f6"/></linearGradient><linearGradient id="95" x1="0%" y1="0%" x2="100%" y2="0%"><stop offset="0%" stop-color="#f00978"/> <stop offset="100%" stop-color="#3f51b1"/></linearGradient><linearGradient id="96" x1="0%" y1="0%" x2="100%" y2="0%"><stop offset="0%" stop-color="#7873f5"/> <stop offset="100%" stop-color="#ec77ab"/></linearGradient><linearGradient id="97" x1="0%" y1="0%" x2="100%" y2="0%"><stop offset="0%" stop-color="#f9d423"/> <stop offset="100%" stop-color="#e14fad"/></linearGradient><linearGradient id="98" x1="0%" y1="0%" x2="100%" y2="0%"><stop offset="0%" stop-color="#009efd"/> <stop offset="100%" stop-color="#2af598"/></linearGradient><linearGradient id="99" x1="0%" y1="0%" x2="100%" y2="0%"><stop offset="0%" stop-color="#ffcc00"/> <stop offset="100%" stop-color="#00b140"/></linearGradient><linearGradient id="100" x1="0%" y1="0%" x2="100%" y2="0%"><stop offset="0%" stop-color="#d51007"/> <stop offset="100%" stop-color="#ff8177"/></linearGradient><linearGradient id="102" x1="0%" y1="0%" x2="100%" y2="0%"><stop offset="0%" stop-color="#a2b6df"/> <stop offset="100%" stop-color="#0c3483"/></linearGradient><linearGradient id="103" x1="0%" y1="0%" x2="100%" y2="0%"><stop offset="0%" stop-color="#7ac5d8"/> <stop offset="100%" stop-color="#eea2a2"/></linearGradient><linearGradient id="104" x1="0%" y1="0%" x2="100%" y2="0%"><stop offset="0%" stop-color="#00ecbc"/> <stop offset="100%" stop-color="#007adf"/></linearGradient><linearGradient id="105" x1="0%" y1="0%" x2="100%" y2="0%"><stop offset="0%" stop-color="#b88746"/> <stop offset="100%" stop-color="#fdf5a6"/></linearGradient></defs> <g fill="#aeaeae" class="icon-text-wrapper icon-svg-group iconsvg" transform="translate(48.084999084472656,100.17707061767578)"><g class="iconsvg-imagesvg" transform="translate(0,0)"><g><rect fill="#aeaeae" fill-opacity="0" stroke-width="2" x="0" y="0" width="60" height="49.64585953531475" class="image-rect"/> <svg filter="url(#colors3740009273)" x="0" y="0" width="60" height="49.64585953531475" filtersec="colorsf1844439091" class="image-svg-svg primary" style="overflow: visible;"><svg xmlns="http://www.w3.org/2000/svg" xmlns:xlink="http://www.w3.org/1999/xlink" version="1.1" x="0px" y="0px" viewBox="10 16.89750099182129 80.00999450683594 66.20249938964844" xml:space="preserve"><path d="M89.25,36.16L50.59,17.04c-0.37-0.19-0.81-0.19-1.19,0L10.75,36.16c-0.46,0.23-0.75,0.69-0.75,1.2  c0,0.51,0.29,0.97,0.75,1.2l13.16,6.5v16.6c0,0.44,0.21,0.85,0.57,1.1c8.47,5.92,17.01,8.88,25.54,8.88c5.35,0,10.69-1.17,16.01-3.5  c0.68-0.3,0.99-1.09,0.69-1.77c-0.3-0.68-1.09-0.99-1.77-0.69c-12.87,5.65-25.42,4.11-38.36-4.73V46.39l22.82,11.28  c0.19,0.09,0.39,0.14,0.59,0.14c0.2,0,0.41-0.05,0.59-0.14l14.62-7.24c0.66-0.33,0.94-1.13,0.61-1.79  c-0.33-0.66-1.13-0.94-1.79-0.61L50,54.97L25.81,43.02c-0.03-0.01-0.05-0.03-0.08-0.04l-11.37-5.62L50,19.73l35.64,17.63  l-13.64,6.73c-0.66,0.33-0.94,1.13-0.61,1.79c0.33,0.66,1.13,0.94,1.79,0.61l0.24-0.12v14.57L72.3,61.7  c-0.62,0.41-0.78,1.24-0.37,1.86c0.26,0.39,0.68,0.6,1.12,0.6c0.26,0,0.51-0.07,0.74-0.22l1.71-1.15c0.37-0.25,0.6-0.67,0.6-1.12  V45.06l13.16-6.49c0.46-0.22,0.75-0.69,0.75-1.2C90,36.86,89.71,36.39,89.25,36.16z"/><path d="M65.13,74.53v4.36c0,2.32,1.89,4.21,4.21,4.21c2.32,0,4.21-1.89,4.21-4.21v-4.36c0-1.85-1.21-3.41-2.87-3.97V46.93  c0-0.07-0.03-0.12-0.04-0.19c-0.01-0.1-0.02-0.19-0.06-0.29c-0.03-0.08-0.08-0.15-0.13-0.22c-0.04-0.07-0.08-0.15-0.14-0.21  c-0.07-0.07-0.15-0.12-0.23-0.18c-0.05-0.04-0.09-0.09-0.15-0.12l-19.34-9.57c-0.66-0.33-1.47-0.06-1.79,0.61  c-0.33,0.66-0.06,1.47,0.61,1.79l18.6,9.2v22.8C66.34,71.12,65.13,72.68,65.13,74.53z M69.34,73c0.84,0,1.53,0.69,1.53,1.53v4.36  c0,0.85-0.69,1.53-1.53,1.53c-0.85,0-1.53-0.69-1.53-1.53v-4.36C67.81,73.69,68.5,73,69.34,73z"/></svg></svg> <defs><filter id="colors3740009273"><feColorMatrix type="matrix" values="0 0 0 0 0.6796875  0 0 0 0 0.6796875  0 0 0 0 0.6796875  0 0 0 1 0" class="icon-feColorMatrix "/></filter> <filter id="colorsf1844439091"><feColorMatrix type="matrix" values="0 0 0 0 0.99609375  0 0 0 0 0.99609375  0 0 0 0 0.99609375  0 0 0 1 0" class="icon-fecolormatrix"/></filter> <filter id="colorsb3126930149"><feColorMatrix type="matrix" values="0 0 0 0 0  0 0 0 0 0  0 0 0 0 0  0 0 0 1 0" class="icon-fecolormatrix"/></filter></defs></g></g> <g transform="translate(66,9.242929458618164)"><g fill-rule="" class="tp-name iconsvg-namesvg"><g transform="scale(1)"><g><path d="M21.34 0L17.97 0 15.07-8.3 7.69-8.3 4.79 0 1.42 0 9.61-23.54 13.15-23.54 21.34 0ZM14.04-11.27L11.38-18.97 8.69-11.27 14.04-11.27ZM40.38 0L37.26 0 37.26-2.73Q36.13-1.38 34.58-0.6 33.04 0.18 31.38 0.18L31.38 0.18Q29.5 0.18 27.87-0.51 26.24-1.21 25.03-2.48L25.03-2.48Q23.79-3.76 23.1-5.41 22.41-7.06 22.41-8.9L22.41-8.9Q22.41-10.74 23.1-12.39 23.79-14.04 25.03-15.32L25.03-15.32Q26.24-16.59 27.87-17.28 29.5-17.97 31.38-17.97L31.38-17.97Q33.22-17.97 34.73-17.23 36.23-16.49 37.26-15.17L37.26-15.17 37.26-23.54 40.38-23.54 40.38 0ZM31.38-14.75Q30.21-14.75 29.14-14.31 28.08-13.86 27.3-13.05L27.3-13.05Q26.52-12.23 26.06-11.15 25.6-10.07 25.6-8.9L25.6-8.9Q25.6-6.52 27.3-4.75L27.3-4.75Q28.08-3.94 29.14-3.47 30.21-3.01 31.38-3.01L31.38-3.01Q32.55-3.01 33.63-3.47 34.71-3.94 35.49-4.75L35.49-4.75Q37.19-6.52 37.19-8.9L37.19-8.9Q37.19-10.07 36.73-11.15 36.27-12.23 35.49-13.05L35.49-13.05Q34.71-13.86 33.63-14.31 32.55-14.75 31.38-14.75L31.38-14.75ZM67.5 0L64.31 0 64.31-11.1Q64.31-12.55 63.3-13.54 62.29-14.54 60.84-14.54L60.84-14.54Q59.42-14.54 58.36-13.54L58.36-13.54Q57.33-12.59 57.33-11.13L57.33-11.13 57.33 0 54.1 0 54.1-11.13Q54.1-12.62 53.11-13.54L53.11-13.54Q52.05-14.54 50.59-14.54L50.59-14.54Q49.17-14.54 48.18-13.54L48.18-13.54Q47.12-12.48 47.12-11.03L47.12-11.03 47.12 0 43.93 0 43.93-17.3 47.12-17.3 47.12-15.99Q47.72-16.73 48.7-17.23 49.67-17.73 50.59-17.73L50.59-17.73Q52.15-17.73 53.45-17.11 54.74-16.49 55.7-15.39L55.7-15.39Q56.65-16.49 57.97-17.11 59.28-17.73 60.84-17.73L60.84-17.73Q62.22-17.73 63.43-17.23 64.63-16.73 65.55-15.81L65.55-15.81Q66.48-14.89 66.99-13.67 67.5-12.44 67.5-11.1L67.5-11.1 67.5 0ZM72.68-20.28Q72.01-20.28 71.53-20.76 71.05-21.24 71.05-21.91L71.05-21.91Q71.05-22.58 71.53-23.06 72.01-23.54 72.68-23.54L72.68-23.54Q73.35-23.54 73.83-23.06 74.31-22.58 74.31-21.91L74.31-21.91Q74.31-21.24 73.83-20.76 73.35-20.28 72.68-20.28L72.68-20.28ZM74.2 0L71.23 0 71.23-17.73 74.2-17.73 74.2 0ZM85.83-14.54L83.17-14.54 83.17 0 80.16 0 80.16-14.54 77.5-14.54 77.5-17.73 80.16-17.73 80.16-23.58 83.17-23.58 83.17-17.73 85.83-17.73 85.83-14.54ZM97-14.54L94.34-14.54 94.34 0 91.33 0 91.33-14.54 88.67-14.54 88.67-17.73 91.33-17.73 91.33-23.58 94.34-23.58 94.34-17.73 97-17.73 97-14.54ZM116.54-7.52L102.18-7.52Q102.18-6.67 102.8-5.74 103.42-4.82 104.23-4.18L104.23-4.18Q105.72-3.01 107.71-3.01L107.71-3.01Q110.86-3.01 112.85-6.06L112.85-6.06 115.54-4.47Q114.16-2.23 112.14-1.03 110.12 0.18 107.71 0.18L107.71 0.18Q105.9 0.18 104.27-0.51 102.64-1.21 101.4-2.45L101.4-2.45Q100.16-3.69 99.47-5.32 98.77-6.95 98.77-8.76L98.77-8.76Q98.77-10.57 99.47-12.21 100.16-13.86 101.4-15.1L101.4-15.1Q102.6-16.34 104.25-17.02 105.9-17.69 107.71-17.69L107.71-17.69Q109.52-17.69 111.16-17.02 112.81-16.34 114.02-15.1L114.02-15.1Q116.64-12.41 116.64-8.86L116.64-8.86Q116.64-8.23 116.54-7.52L116.54-7.52ZM107.71-14.78Q106.25-14.78 104.98-14.15 103.7-13.51 102.94-12.46 102.18-11.42 102.18-10.25L102.18-10.25 113.24-10.25Q113.24-11.42 112.48-12.46 111.71-13.51 110.44-14.15 109.16-14.78 107.71-14.78L107.71-14.78ZM137.1 0L133.98 0 133.98-2.73Q132.84-1.38 131.3-0.6 129.76 0.18 128.09 0.18L128.09 0.18Q126.21 0.18 124.58-0.51 122.95-1.21 121.75-2.48L121.75-2.48Q120.51-3.76 119.82-5.41 119.12-7.06 119.12-8.9L119.12-8.9Q119.12-10.74 119.82-12.39 120.51-14.04 121.75-15.32L121.75-15.32Q122.95-16.59 124.58-17.28 126.21-17.97 128.09-17.97L128.09-17.97Q129.94-17.97 131.44-17.23 132.95-16.49 133.98-15.17L133.98-15.17 133.98-23.54 137.1-23.54 137.1 0ZM128.09-14.75Q126.92-14.75 125.86-14.31 124.8-13.86 124.02-13.05L124.02-13.05Q123.24-12.23 122.78-11.15 122.31-10.07 122.31-8.9L122.31-8.9Q122.31-6.52 124.02-4.75L124.02-4.75Q124.8-3.94 125.86-3.47 126.92-3.01 128.09-3.01L128.09-3.01Q129.26-3.01 130.35-3.47 131.43-3.94 132.21-4.75L132.21-4.75Q133.91-6.52 133.91-8.9L133.91-8.9Q133.91-10.07 133.45-11.15 132.99-12.23 132.21-13.05L132.21-13.05Q131.43-13.86 130.35-14.31 129.26-14.75 128.09-14.75L128.09-14.75ZM141.14 0Q140.47 0 140.02-0.44 139.58-0.89 139.58-1.56L139.58-1.56Q139.58-2.2 140.02-2.66 140.47-3.12 141.14-3.12L141.14-3.12Q141.78-3.12 142.24-2.66 142.7-2.2 142.7-1.56L142.7-1.56Q142.7-0.89 142.24-0.44 141.78 0 141.14 0L141.14 0ZM154.58-14.75L150.89-14.75 150.89 0 147.91 0 147.91-14.75 146.25-14.75 146.25-17.73 147.95-17.73Q148.02-19.43 148.92-20.78 149.83-22.12 151.32-22.87 152.81-23.61 154.58-23.61L154.58-23.61 154.58-20.56Q153.09-20.63 152.08-19.82 151.07-19 151-17.73L151-17.73 154.58-17.73 154.58-14.75ZM164.75 7.55Q162.73 7.55 161.01 6.52 159.29 5.5 158.02 3.55L158.02 3.55 160.78 1.95Q161.53 3.12 162.55 3.74 163.58 4.36 164.75 4.36L164.75 4.36Q166.63 4.36 168.01 2.98L168.01 2.98Q168.65 2.34 168.99 1.49 169.33 0.64 169.33-0.32L169.33-0.32 169.33-1.56Q168.51-0.71 167.27-0.19 166.03 0.32 164.75 0.32L164.75 0.32Q163.19 0.32 161.81-0.27 160.43-0.85 159.36-1.91L159.36-1.91Q158.26-2.98 157.66-4.38 157.06-5.78 157.06-7.34L157.06-7.34 157.06-17.73 160.18-17.73 160.18-7.55Q160.18-6.31 160.8-5.23 161.42-4.15 162.47-3.51 163.51-2.87 164.75-2.87L164.75-2.87Q165.99-2.87 167.06-3.49 168.12-4.11 168.72-5.19 169.33-6.28 169.33-7.55L169.33-7.55 169.33-17.73 172.45-17.73 172.45-0.32Q172.45 1.28 171.86 2.73 171.28 4.18 170.21 5.25L170.21 5.25Q169.11 6.35 167.71 6.95 166.31 7.55 164.75 7.55L164.75 7.55ZM177.62-20.28Q176.95-20.28 176.47-20.76 175.99-21.24 175.99-21.91L175.99-21.91Q175.99-22.58 176.47-23.06 176.95-23.54 177.62-23.54L177.62-23.54Q178.3-23.54 178.77-23.06 179.25-22.58 179.25-21.91L179.25-21.91Q179.25-21.24 178.77-20.76 178.3-20.28 177.62-20.28L177.62-20.28ZM179.15 0L176.17 0 176.17-17.73 179.15-17.73 179.15 0Z" transform="translate(-1.4200000762939453, 23.610000610351562)"/></g> </g></g> </g></g><defs v-gra="od"/>
  </svg>
</svg>


