<svg xmlns="http://www.w3.org/2000/svg" width="1000" height="1000" viewBox="0 0 1000 1000" version="1.1"><path d="M 390 443.704 C 389.175 444.004, 387.284 445.382, 385.799 446.765 C 376.271 455.638, 388.172 469.616, 400.033 463.483 C 403.193 461.849, 406 457.388, 406 454 C 406 446.689, 397.257 441.063, 390 443.704 M 911 443.704 C 910.175 444.004, 908.284 445.382, 906.799 446.765 C 897.271 455.638, 909.172 469.616, 921.033 463.483 C 924.193 461.849, 927 457.388, 927 454 C 927 446.689, 918.257 441.063, 911 443.704 M 784.500 444.869 C 773.322 447.837, 767 456.507, 767 468.866 L 767 474 761.500 474 L 756 474 756 482.500 L 756 491 761.500 491 L 767 491 767 521 L 767 551 778 551 L 789 551 789 521 L 789 491 796.500 491 L 804 491 804 482.500 L 804 474 796.500 474 L 789 474 789 469.655 C 789 463.438, 791.303 461.612, 798.399 462.200 L 803.861 462.653 805.431 455.704 C 807.401 446.978, 807.390 446.364, 805.250 445.541 C 802.462 444.470, 787.792 443.994, 784.500 444.869 M 211 468.078 L 211 487.155 207.703 482.828 C 202.735 476.305, 197.046 473.565, 188.464 473.560 C 171.989 473.550, 160.886 484.698, 157.837 504.311 C 154.725 524.326, 162.034 542.955, 175.603 549.594 C 188.424 555.867, 203.578 551.841, 209.836 540.500 C 210.738 538.865, 210.945 539.641, 210.970 544.750 L 211 551 221.500 551 L 232 551 232 500 L 232 449 221.500 449 L 211 449 211 468.078 M 676 468.078 L 676 487.155 672.703 482.828 C 667.735 476.305, 662.046 473.565, 653.464 473.560 C 636.989 473.550, 625.886 484.698, 622.837 504.311 C 619.725 524.326, 627.034 542.955, 640.603 549.594 C 653.424 555.867, 668.578 551.841, 674.836 540.500 C 675.738 538.865, 675.945 539.641, 675.970 544.750 L 676 551 686.500 551 L 697 551 697 500 L 697 449 686.500 449 L 676 449 676 468.078 M 429 465 L 429 474 424 474 L 419 474 419 482.500 L 419 491 423.934 491 L 428.867 491 429.184 514.250 C 429.492 536.894, 429.565 537.617, 432 542 C 433.893 545.407, 435.836 547.183, 440 549.313 C 445.096 551.920, 446.212 552.103, 455.202 551.813 C 460.538 551.641, 465.326 551.050, 465.842 550.500 C 466.429 549.874, 466.172 546.572, 465.154 541.671 L 463.528 533.842 460.514 534.292 C 457.185 534.790, 452.956 533.527, 451.786 531.687 C 451.370 531.034, 451.024 521.612, 451.015 510.750 L 451 491 458 491 L 465 491 465 482.500 L 465 474 458 474 L 451 474 451 465 L 451 456 440 456 L 429 456 429 465 M 486 465 L 486 474 481 474 L 476 474 476 482.500 L 476 491 480.934 491 L 485.867 491 486.184 514.250 C 486.492 536.894, 486.565 537.617, 489 542 C 490.893 545.407, 492.836 547.183, 497 549.313 C 502.096 551.920, 503.212 552.103, 512.202 551.813 C 517.538 551.641, 522.326 551.050, 522.842 550.500 C 523.429 549.874, 523.172 546.572, 522.154 541.671 L 520.528 533.842 517.514 534.292 C 514.185 534.790, 509.956 533.527, 508.786 531.687 C 508.370 531.034, 508.024 521.612, 508.015 510.750 L 508 491 515 491 L 522 491 522 482.500 L 522 474 515 474 L 508 474 508 465 L 508 456 497 456 L 486 456 486 465 M 99 474.429 C 90.983 476.269, 88.518 477.481, 83.621 481.995 C 79.940 485.388, 74.089 495.446, 75.180 496.504 C 75.356 496.675, 80.065 497.135, 85.644 497.528 C 95.503 498.223, 95.808 498.181, 96.483 496.052 C 98.169 490.743, 110.550 487.895, 115.841 491.601 C 120.315 494.735, 120.915 500.905, 116.952 503.026 C 115.900 503.589, 109.873 504.727, 103.559 505.555 C 85.758 507.890, 79.034 511.093, 74.892 519.212 C 73.184 522.560, 72.866 524.708, 73.151 530.977 C 73.609 541.043, 76.418 545.585, 84.699 549.652 C 89.654 552.085, 91.667 552.492, 98.500 552.448 C 107.767 552.387, 112.723 550.357, 117.845 544.524 L 121 540.930 121 545.965 L 121 551 131.569 551 L 142.137 551 141.814 522.250 C 141.531 497.179, 141.260 492.988, 139.692 489.500 C 136.059 481.418, 128.412 476.102, 117.526 474.089 C 110.213 472.738, 106.041 472.814, 99 474.429 M 287 474.520 C 281.688 476.289, 279.056 478.355, 275.568 483.495 L 273 487.279 273 480.640 L 273 474 262.500 474 L 252 474 252 512.500 L 252 551 263 551 L 274 551 274 526.468 C 274 500.139, 274.511 496.856, 279.117 493.631 C 280.493 492.667, 283.430 492, 286.299 492 C 290.332 492, 291.649 492.495, 294.077 494.923 L 297 497.846 297 524.423 L 297 551 308 551 L 319 551 319 525.450 C 319 498.359, 319.446 495.437, 323.945 493.030 C 326.503 491.661, 333.291 491.720, 336.405 493.139 C 341.466 495.445, 342 498.570, 342 525.901 L 342 551 353.067 551 L 364.134 551 363.814 521.250 C 363.534 495.192, 363.271 491.004, 361.694 487.500 C 356.574 476.122, 344.222 470.759, 331.595 474.429 C 325.720 476.137, 318.611 481.498, 317.475 485.078 C 316.814 487.162, 315 487.724, 315 485.844 C 315 483.562, 309.806 477.941, 305.814 475.905 C 300.502 473.195, 292.704 472.621, 287 474.520 M 564.045 474.032 C 545.069 478.009, 533.582 495.283, 535.271 517.302 C 536.014 526.983, 539.127 534.812, 544.696 541.007 C 552.506 549.693, 564.107 553.835, 577.217 552.616 C 587.593 551.652, 594.653 548.609, 600.622 542.526 C 605.392 537.666, 609.029 530.695, 607.561 529.228 C 607.210 528.876, 602.709 528.405, 597.560 528.180 C 588.443 527.781, 588.153 527.837, 586.540 530.299 C 582.914 535.832, 571.861 537.805, 564.984 534.146 C 561.033 532.044, 557.041 525.841, 557.016 521.767 L 557 519.034 582.750 518.767 L 608.500 518.500 608.393 510.997 C 608.139 493.255, 600.023 480.448, 585.867 475.453 C 580.474 473.550, 569.694 472.848, 564.045 474.032 M 383 512.500 L 383 551 394 551 L 405 551 405 512.500 L 405 474 394 474 L 383 474 383 512.500 M 813 474.355 C 813 474.550, 819.094 492.177, 826.542 513.527 C 840.775 554.329, 841.024 555.450, 836.848 559.933 C 835.130 561.777, 833.880 562.093, 829.168 561.875 L 823.540 561.614 821.191 569.395 C 819.899 573.674, 819.067 577.400, 819.342 577.675 C 820.351 578.685, 827.641 579.953, 832.568 579.976 C 843.234 580.026, 852.734 575.020, 857.932 566.610 C 859.451 564.152, 891 476.172, 891 474.393 C 891 474.177, 885.846 474, 879.547 474 L 868.094 474 866.229 480.250 C 865.203 483.688, 861.694 496.056, 858.432 507.735 C 855.169 519.415, 852.240 528.977, 851.922 528.985 C 851.604 528.993, 848.281 518.087, 844.538 504.750 C 840.795 491.413, 837.321 479.038, 836.819 477.250 L 835.906 474 824.453 474 C 818.154 474, 813 474.160, 813 474.355 M 904 512.500 L 904 551 915 551 L 926 551 926 512.500 L 926 474 915 474 L 904 474 904 512.500 M 565.218 491.663 C 561.331 493.579, 558.222 497.638, 557.367 501.916 L 556.750 505 572.500 505 L 588.250 505 587.610 501.802 C 585.651 492.007, 574.638 487.020, 565.218 491.663 M 189.418 491.969 C 186.207 493.268, 182.174 498.642, 180.917 503.295 C 179.249 509.472, 180.183 522.918, 182.562 526.981 C 185.290 531.641, 189.062 534.147, 194.136 534.671 C 200.260 535.303, 204.821 532.585, 208 526.406 C 210.136 522.254, 210.494 520.235, 210.460 512.524 C 210.413 502.041, 208.125 496.266, 202.710 492.965 C 199.381 490.935, 193.132 490.467, 189.418 491.969 M 654.418 491.969 C 651.207 493.268, 647.174 498.642, 645.917 503.295 C 644.249 509.472, 645.183 522.918, 647.562 526.981 C 650.290 531.641, 654.062 534.147, 659.136 534.671 C 665.260 535.303, 669.821 532.585, 673 526.406 C 675.136 522.254, 675.494 520.235, 675.460 512.524 C 675.413 502.041, 673.125 496.266, 667.710 492.965 C 664.381 490.935, 658.132 490.467, 654.418 491.969 M 118.934 516.388 C 118.623 516.705, 113.947 517.854, 108.542 518.941 C 96.909 521.282, 94 523.314, 94 529.102 C 94 532.003, 94.624 533.347, 96.750 535.024 C 99.066 536.851, 100.484 537.131, 105.733 536.800 C 110.961 536.471, 112.455 535.938, 115.005 533.495 C 116.677 531.894, 118.520 528.989, 119.101 527.042 C 120.150 523.529, 120.020 515.280, 118.934 516.388 M 724.500 529.556 C 719.868 531.940, 718.047 534.924, 718.022 540.173 C 717.995 545.923, 721.339 550.422, 726.872 552.080 C 736.431 554.944, 745.283 544.046, 740.721 535.030 C 739.072 531.773, 733.367 527.998, 730.102 528.006 C 728.671 528.010, 726.150 528.707, 724.500 529.556" stroke="none" fill="#3b3c3b" fill-rule="evenodd"/></svg>